<?xml version="1.0" standalone="no"?>
<!DOCTYPE svg PUBLIC "-//W3C//DTD SVG 1.1//EN"
  "http://www.w3.org/Graphics/SVG/1.1/DTD/svg11.dtd">
<svg version="1.1" xmlns="http://www.w3.org/2000/svg" xmlns:xlink="http://www.w3.org/1999/xlink" width="1792" height="1063" viewBox="-992 -32 1792 1063" id="ccdiagram"><filter id="grayscale"><feColorMatrix type="matrix" values="0.3333 0.3333 0.3333 0 0 0.3333 0.3333 0.3333 0 0 0.3333 0.3333 0.3333 0 0 0 0 0 1 0"></feColorMatrix></filter><defs><style type="text/css">@import url('https://fonts.googleapis.com/css?family=Open+Sans:400,700|Inconsolata:400');</style></defs><g><g pointer-events="auto"><g opacity="1"><g><g><polygon points="-480 315, -32 574, -32 611, -416 833, -480 833, -928 574, -928 537, -544 315" fill="#ffffff" stroke-width="2" stroke="#818181"></polygon><polygon points="-512 333, -64 592, -448 814, -896 555" fill="#e6e7e8" stroke-width="0" stroke="#818181"></polygon></g></g></g></g><g pointer-events="auto"></g><g></g><g pointer-events="auto"></g><g></g><g pointer-events="auto"></g><g pointer-events="none"></g><g pointer-events="auto"><g><g cursor="cell"><line x1="-16" y1="527" x2="64" y2="481" stroke="red" stroke-width="8" opacity="0"></line><line x1="-16" y1="527" x2="64" y2="481" stroke="#000000" stroke-width="2" stroke-linecap="round"></line></g></g><g><g cursor="cell"><line x1="-96" y1="481" x2="-16" y2="527" stroke="red" stroke-width="8" opacity="0"></line><line x1="-96" y1="481" x2="-16" y2="527" stroke="#000000" stroke-width="2" stroke-linecap="round"></line></g></g><g><g cursor="cell"><line x1="-583" y1="633" x2="-481" y2="574" stroke="red" stroke-width="8" opacity="0"></line><line x1="-583" y1="633" x2="-481" y2="574" stroke="#000000" stroke-width="2" stroke-linecap="round"></line></g></g><g><g cursor="cell"><line x1="-400" y1="305" x2="-320" y2="259" stroke="red" stroke-width="8" opacity="0"></line><line x1="-400" y1="305" x2="-320" y2="259" stroke="#000000" stroke-width="2" stroke-linecap="round"></line></g></g><g><g cursor="cell"><line x1="-352" y1="629" x2="-256" y2="574" stroke="red" stroke-width="8" opacity="0"></line><line x1="-352" y1="629" x2="-256" y2="574" stroke="#000000" stroke-width="2" stroke-linecap="round"></line></g></g><g><g cursor="cell"><line x1="-176" y1="527" x2="-96" y2="481" stroke="red" stroke-width="8" opacity="0"></line><line x1="-176" y1="527" x2="-96" y2="481" stroke="#000000" stroke-width="2" stroke-linecap="round"></line></g></g><g><g cursor="cell"><line x1="-272" y1="379" x2="-400" y2="305" stroke="red" stroke-width="8" opacity="0"></line><line x1="-272" y1="379" x2="-400" y2="305" stroke="#000000" stroke-width="2" stroke-linecap="round"></line></g></g><g><g cursor="cell"><line x1="-144" y1="453" x2="-272" y2="379" stroke="red" stroke-width="8" opacity="0"></line><line x1="-144" y1="453" x2="-272" y2="379" stroke="#000000" stroke-width="2" stroke-linecap="round"></line></g></g><g><g cursor="cell"><line x1="-526" y1="528" x2="-608" y2="481" stroke="red" stroke-width="8" opacity="0"></line><line x1="-526" y1="528" x2="-608" y2="481" stroke="#000000" stroke-width="2" stroke-linecap="round"></line></g></g><g><g cursor="cell"><line x1="-144" y1="453" x2="-64" y2="407" stroke="red" stroke-width="8" opacity="0"></line><line x1="-144" y1="453" x2="-64" y2="407" stroke="#000000" stroke-width="2" stroke-linecap="round"></line></g></g><g><g cursor="cell"><line x1="-96" y1="481" x2="-144" y2="453" stroke="red" stroke-width="8" opacity="0"></line><line x1="-96" y1="481" x2="-144" y2="453" stroke="#000000" stroke-width="2" stroke-linecap="round"></line></g></g><g><g cursor="cell"><line x1="-272" y1="379" x2="-192" y2="333" stroke="red" stroke-width="8" opacity="0"></line><line x1="-272" y1="379" x2="-192" y2="333" stroke="#000000" stroke-width="2" stroke-linecap="round"></line></g></g><g><g cursor="cell"><line x1="-608" y1="481" x2="-512" y2="426" stroke="red" stroke-width="8" opacity="0"></line><line x1="-608" y1="481" x2="-512" y2="426" stroke="#000000" stroke-width="2" stroke-linecap="round"></line></g></g><g><g cursor="cell"><line x1="-408" y1="596" x2="-352" y2="629" stroke="red" stroke-width="8" opacity="0"></line><line x1="-408" y1="596" x2="-352" y2="629" stroke="#000000" stroke-width="2" stroke-linecap="round"></line></g></g></g><g pointer-events="auto"><g opacity="1"><g id="ef16911e-f148-48dc-ba77-cc57f2627e5e" transform="translate(0 0)"><g><polygon points="-288 167, -224 204, -288 241, -352 204" fill="#9c27b0"></polygon><polygon points="-352 241, -288 278, -288 241, -352 204" fill="#771e86" stroke="#e6b5ee"></polygon><polygon points="-288 278, -224 241, -224 204, -288 241" fill="#52145d" stroke="#e6b5ee"></polygon><polygon points="-288 167, -352 204, -352 241, -288 278, -224 241, -224 204" fill="none" stroke="#000000" stroke-width="2"></polygon></g></g></g><g opacity="1"><g id="2e0ba105-228f-4433-9f56-876ea4db17f6" transform="translate(0 0)"><g><polygon points="-160 241, -96 278, -160 315, -224 278" fill="#9c27b0"></polygon><polygon points="-224 315, -160 352, -160 315, -224 278" fill="#771e86" stroke="#e6b5ee"></polygon><polygon points="-160 352, -96 315, -96 278, -160 315" fill="#52145d" stroke="#e6b5ee"></polygon><polygon points="-160 241, -224 278, -224 315, -160 352, -96 315, -96 278" fill="none" stroke="#000000" stroke-width="2"></polygon></g></g></g><g opacity="1"><g id="211c5d7e-a24d-47c2-b1f6-094758bd7dda" transform="translate(0 0)"><g><polygon points="-32 315, 32 352, -32 389, -96 352" fill="#9c27b0"></polygon><polygon points="-96 389, -32 426, -32 389, -96 352" fill="#771e86" stroke="#e6b5ee"></polygon><polygon points="-32 426, 32 389, 32 352, -32 389" fill="#52145d" stroke="#e6b5ee"></polygon><polygon points="-32 315, -96 352, -96 389, -32 426, 32 389, 32 352" fill="none" stroke="#000000" stroke-width="2"></polygon></g></g></g><g opacity="1"><g id="a536da5a-6bc0-490d-bd9d-d48a9c084399" transform="translate(0 0)"><g><polygon points="96 389, 160 426, 96 463, 32 426" fill="#9c27b0"></polygon><polygon points="32 463, 96 500, 96 463, 32 426" fill="#771e86" stroke="#e6b5ee"></polygon><polygon points="96 500, 160 463, 160 426, 96 463" fill="#52145d" stroke="#e6b5ee"></polygon><polygon points="96 389, 32 426, 32 463, 96 500, 160 463, 160 426" fill="none" stroke="#000000" stroke-width="2"></polygon></g></g></g><g opacity="1"><g id="6aabe459-3b17-4456-bb1e-e687bc1e4006" transform="translate(0 0)"><svg x="-544" y="306" height="137.556" width="128" viewBox="0 0 33.867 36.395"><g fill="#4286c5" font-family="sans-serif" font-size="3.175" stroke-width=".265" style="line-height: 0%;"><path d="M.187 12.17v14.365l16.586 9.577V21.747l-4.146-7.183-8.293-4.787z" fill="#d2d2d4" stroke-width=".264"></path><path d="M20.955 14.564l8.292-4.787 4.147 2.394v14.364l-16.587 9.576V21.748z" fill="#b8b8bb" stroke-width=".264"></path><path d="M4.334 9.777l8.292 4.788h8.293l8.293-4.788V4.988L20.919.2h-8.293L4.334 4.988zM12.856 14.565h8.294l-4.147 7.182z" fill="#ececed" stroke-width=".264"></path><path d="M4.394 4.806v4.789L.247 11.988zM29.212 9.595v-4.79l4.146 7.183z" fill="#d2d2d4" stroke-width=".264"></path><path d="M208.47 90.288l4.345-4.346 4.346 8.693z" fill="none" stroke="#83838a" stroke-width=".264" transform="scale(1.34943 .77909) rotate(45 195.366 -185.783)"></path><path d="M199.734 94.678l13.037 13.037h17.383L217.117 94.68l-8.692-4.347h-8.69zM212.819 85.928v-8.69h4.345l13.037 13.037.001 17.382-13.037-13.037zM199.734 90.333h8.69l4.347-4.346v-8.69l-4.347-4.347h-8.69l-4.346 4.346v8.69z" fill="none" stroke="#83838a" stroke-width=".257" transform="scale(1.34943 .77909) rotate(45 195.366 -185.783)"></path><path d="M212.855 107.631l-13.037-13.037-4.346-8.692v-8.69l4.346-4.347h8.69l8.692 4.346 13.038 13.038v17.383z" fill="none" stroke="#000000" stroke-width=".514" transform="scale(1.34943 .77909) rotate(45 195.366 -185.783)"></path><g style="line-height: 0%;"><path d="M15.745 6.453l.69.399q.967.558 1.826.616.865.055 1.596-.367.737-.425.683-.862-.048-.434-.907-.93l-.953-.55zm6.303 1.828q-1.596.921-3.443.831-1.839-.086-3.678-1.148l-.9-.519-3.517 2.03-2.096-1.21 9.887-5.708L21.46 4.38q1.8 1.039 1.955 2.026.169.988-1.366 1.875z" font-family="Open Sans" font-size="14.515" stroke-width=".258" style="line-height: 1.25;"></path></g></g></svg></g></g><g opacity="1"><g id="4263086c-a91f-42bd-b8cf-309d0315700e" transform="translate(0 0)"><svg x="-272" y="469" height="113.438" width="96" viewBox="0 0 25.4 30.014"><g transform="translate(412.599 -86.957)"><g fill-rule="evenodd"><path d="M-412.333 102.348v4.786l8.29 4.785h8.289l8.29-4.785v-4.786l-8.29-4.786h-8.29z" fill="#3c3c3c"></path><path d="M-395.754 111.92l8.29-4.786v4.785l-8.29 4.786z" fill="#090909"></path><path d="M-404.044 111.92h8.29v4.785h-8.29z" fill="#232323"></path><path d="M-412.333 107.134v4.785l8.29 4.786v-4.786z" fill="#232323"></path><path d="M-412.333 107.134l8.29 4.785h8.289l8.29-4.785M-404.044 111.92v4.785M-395.754 111.92v4.785" fill="none" stroke="#a2a2a2" stroke-width=".26588"></path><path d="M-412.333 102.348v9.571l8.29 4.786h8.289l8.29-4.786v-9.571l-8.29-4.786h-8.29z" fill="none" stroke="#000000" stroke-width=".53176"></path></g><path d="M-412.333 97.178v4.786l8.29 4.786h8.289l8.29-4.786v-4.786l-8.29-4.786h-8.29z" fill="#3c3c3c" fill-rule="evenodd" stroke-width=".332"></path><path d="M-395.754 106.75l8.29-4.786v4.786l-8.29 4.786z" fill="#090909" fill-rule="evenodd" stroke-width=".332"></path><path d="M-404.044 106.75h8.29v4.786h-8.29z" fill="#232323" fill-rule="evenodd" stroke-width=".332"></path><path d="M-412.333 101.964v4.786l8.29 4.786v-4.786z" fill="#232323" fill-rule="evenodd" stroke-width=".332"></path><path d="M-412.333 101.964l8.29 4.786h8.289l8.29-4.786M-404.044 106.75v4.786M-395.754 106.75v4.786" fill="none" fill-rule="evenodd" stroke="#a2a2a2" stroke-width=".266"></path><path d="M-412.333 97.178v9.572l8.29 4.786h8.289l8.29-4.786v-9.572l-8.29-4.786h-8.29z" fill="none" fill-rule="evenodd" stroke="#000000" stroke-width=".532"></path><path d="M-412.333 92.01v4.785l8.29 4.786h8.289l8.29-4.786v-4.786l-8.29-4.786h-8.29z" fill="#3c3c3c" fill-rule="evenodd" stroke-width=".332"></path><path d="M-395.754 101.58l8.29-4.785v4.786l-8.29 4.786z" fill="#090909" fill-rule="evenodd" stroke-width=".332"></path><path d="M-404.044 101.58h8.29v4.787h-8.29z" fill="#232323" fill-rule="evenodd" stroke-width=".332"></path><path d="M-412.333 96.795v4.786l8.29 4.786v-4.786z" fill="#232323" fill-rule="evenodd" stroke-width=".332"></path><path d="M-412.333 96.795l8.29 4.786h8.289l8.29-4.786M-404.044 101.58v4.787M-395.754 101.58v4.787" fill="none" fill-rule="evenodd" stroke="#a2a2a2" stroke-width=".266"></path><path d="M-412.333 92.01v9.57l8.29 4.787h8.289l8.29-4.786v-9.572l-8.29-4.786h-8.29z" fill="none" fill-rule="evenodd" stroke="#000000" stroke-width=".532"></path><circle cx="-136.478" cy="325.284" fill="#f4b934" r="5.801" stroke-width=".286" transform="scale(1.22475 .7071) rotate(45)"></circle><g style="line-height: 0%;"><path d="M-399.242 93.57l.48-.601q.222-.275.177-.448-.04-.17-.467-.416l-.507-.293 1.065-.614.937.541q.825.476.92.934.1.46-.417 1.114l-3.452 4.39-1.622-.937 1.654-2.121-3.729.923-1.622-.936z" fill="#ffffff" font-family="Droid Serif" font-size="9.971" stroke-width=".266" style="line-height: 1.25;"></path></g></g></svg></g></g><g opacity="1"><g id="ed90fd36-bc9b-4c5a-97f6-d76780a556d5" transform="translate(0 0)"><svg x="-526" y="492" height="108.05" width="123" viewBox="0 0 32.544 28.588"><path d="M10.115 6.02v14.218l7.873-4.318V1.474z" fill="#090909" fill-rule="evenodd" stroke="#a2a2a2" stroke-width=".268"></path><path d="M.265 2.228l9.85 3.791v14.219l-9.85-8.531z" fill="#232323" fill-rule="evenodd" stroke="#a2a2a2" stroke-width=".265"></path><path d="M10.115 6.02l7.873-4.546L3.548.332.265 2.228z" fill="#3c3c3c" fill-rule="evenodd" stroke="#a2a2a2" stroke-width=".265"></path><path d="M.265 11.707l9.85 8.53 7.873-4.317V1.474L3.392.271.265 2.076z" fill="none" fill-rule="evenodd" stroke="#000000" stroke-width=".529"></path><path d="M22.429 3.65L14.22 8.39l14.828 10.397 3.231-1.866z" fill="#3c3c3c" fill-rule="evenodd" stroke="#a2a2a2" stroke-width=".268"></path><path d="M14.22 8.39V22.61l14.777 5.687.051-9.509z" fill="#232323" fill-rule="evenodd" stroke="#a2a2a2" stroke-width=".265"></path><path d="M29.048 18.787l3.231-1.866V26.4l-3.282 1.897z" fill="#090909" fill-rule="evenodd" stroke="#a2a2a2" stroke-width=".265"></path><path d="M22.429 3.65L14.22 8.39V22.61l14.777 5.687 3.282-1.897v-9.478z" fill="none" fill-rule="evenodd" stroke="#000000" stroke-width=".529"></path><path d="M21.09 20.43q.163.375.048.64t-.44.265q-.326 0-.671-.265-.346-.265-.509-.64-.162-.374-.047-.639t.44-.265q.326 0 .671.265.346.265.509.64zm1.573-1.808q.08.184.022.318-.059.134-.218.134-.16 0-.335-.134-.176-.135-.255-.318-.082-.187-.024-.32.058-.132.22-.132.163 0 .336.132.173.133.254.32zm1.573 3.617q.08.184.021.318-.058.134-.218.134t-.335-.134q-.175-.135-.255-.318-.081-.187-.023-.32.057-.132.22-.132t.335.132q.173.133.255.32zm-1.826-1.487l-.284-.654q-.016-.035-.052-.068-.036-.034-.065-.038l-.513-.084q-.088-.124-.215-.269.03-.17.1-.406.006-.035-.01-.07-.018-.043-.05-.068-.117-.106-.39-.316-.275-.21-.333-.21-.034 0-.054.025l-.215.317q-.143-.067-.284-.11-.2-.38-.309-.547-.058-.085-.129-.085h-.571q-.034 0-.05.027-.016.026-.004.062l.164.54q-.089.036-.182.11l-.5-.315q-.032-.024-.071-.024-.034 0-.053.028-.238.47-.196.565.014.032.05.067.053.05.208.187.155.138.238.216-.003.155.018.29l-.43.084q-.029.004-.038.034-.008.03.008.069l.285.653q.015.036.051.069.036.033.065.037l.513.085q.088.124.215.268-.03.17-.1.407-.005.038.01.07.018.043.052.07.113.107.388.315.275.208.333.209.034 0 .054-.025l.215-.318q.132.064.286.113.2.382.307.544.058.085.129.085h.571q.034 0 .05-.027.016-.026.004-.062l-.164-.54q.089-.035.183-.11l.499.315q.035.024.072.024.033 0 .052-.028.238-.47.196-.565-.014-.032-.05-.067-.062-.057-.212-.19-.15-.135-.23-.213-.004-.169-.022-.29l.431-.08q.028-.007.036-.038.008-.03-.008-.068zm1.147-1.883l-.215-.494q-.025-.057-.505-.11-.079-.095-.172-.183-.017-.4-.056-.488-.006-.014-.023-.024-.483-.251-.49-.251-.024 0-.069.166-.044.166-.055.24-.064-.007-.095-.007t-.09.007q-.075-.074-.264-.24-.188-.166-.213-.166-.006 0-.272.25-.008.011-.002.025.039.088.369.488-.017.088-.012.183-.435.053-.41.11l.215.494q.024.057.505.11.084.102.172.184.017.399.055.487.006.014.023.025l.138.07.234.12q.11.057.117.057.024 0 .07-.164.045-.164.056-.239.064.007.095.007.03 0 .089-.007.266.251.455.396l.021.007q.012 0 .273-.247.008-.01.002-.025-.038-.088-.368-.487.017-.082.012-.184.435-.053.41-.11zm1.572 3.617l-.215-.494q-.024-.057-.505-.11-.078-.095-.172-.184-.017-.399-.055-.487-.006-.014-.023-.025-.484-.25-.49-.25-.025 0-.069.165-.044.166-.055.24-.065-.006-.096-.006-.03 0-.089.007-.075-.075-.264-.24-.189-.166-.213-.166-.006 0-.272.25-.008.01-.002.025.038.088.369.487-.017.088-.013.184-.434.053-.41.11l.215.494q.025.057.505.11.085.102.173.183.016.4.055.488.006.014.023.024l.138.07.233.121q.111.057.117.057.025 0 .07-.165.045-.164.056-.238.065.007.095.007.031 0 .09-.007.265.25.454.396l.022.007q.012 0 .273-.248.008-.01.002-.024-.038-.088-.369-.488.017-.08.013-.183.434-.053.41-.11z" fill="#f4b934" stroke-width=".265"></path></svg></g></g><g opacity="1"><g id="23887b02-1408-4eb8-9ddd-7f5f9a008563" transform="translate(0 0)"><svg x="-672" y="537" height="148.142" width="93" viewBox="0 0 24.606 39.196"><g transform="translate(-90.671 -137.288)"><path d="M91.985 141.821l14.632 8.448 7.316-4.224-14.632-8.447z" fill="#ececed" fill-rule="evenodd" stroke-width=".268"></path><path d="M91.985 165.958l-1.045 1.81v-1.207z" fill="#d2d2d4" fill-rule="evenodd" stroke-width=".268"></path><path d="M91.985 165.958l14.632 8.447-1.046 1.81-14.566-8.56zM106.617 174.405l-1.046 1.81h2.09z" fill="#d2d2d4" fill-rule="evenodd" stroke-width=".268"></path><path d="M91.985 141.821v24.137l14.632 8.447V150.27z" fill="#d2d2d4" fill-rule="evenodd" stroke-width=".268"></path><path d="M106.617 174.405l1.045 1.81 7.316-4.223v-1.207l-1.045-.603z" fill="#b8b8bb" fill-rule="evenodd" stroke-width=".268"></path><path d="M106.617 150.27l7.316-4.225v24.137l-7.316 4.223z" fill="#b8b8bb" fill-rule="evenodd" stroke-width=".268"></path><g fill="none" fill-rule="evenodd" stroke="#83838a"><path d="M113.933 170.182l-7.316 4.223-14.632-8.447-1.045 1.81M91.985 141.821l14.632 8.448 7.316-4.224M106.617 150.27v24.135M105.571 176.216l1.046-1.81 1.045 1.81M113.933 170.182l1.045 1.81" stroke-width=".26818"></path></g><path d="M90.94 167.768v-1.207l1.045-.603V141.82l7.316-4.223 14.632 8.447v24.137l1.045.603v1.207l-7.316 4.224h-2.09z" fill="none" fill-rule="evenodd" stroke="#000000" stroke-width=".529"></path><ellipse cx="141.009" cy="74.394" fill="#4286c5" rx="6.047" ry="4.714" stroke-width=".278" transform="matrix(.19572 .98066 .96381 .26658 0 0)"></ellipse><ellipse cx="141.009" cy="74.394" fill="#ffffff" rx="5.037" ry="3.927" stroke-width=".278" transform="matrix(.19572 .98066 .96381 .26658 0 0)"></ellipse><path d="M99.03 153.239c-3.067 2.89-1.034 7.41.27 9.702" fill="none" fill-rule="evenodd" stroke="#4286c5" stroke-width=".51973284"></path><g transform="translate(374.17 163.896) scale(.26818)"><ellipse cx="272.14" cy="-1124.64" fill="#4286c5" rx="3.335" ry="2.648" transform="matrix(.19572 .98066 .96381 .26658 0 0)"></ellipse><ellipse cx="290.38" cy="-1128.297" fill="#4286c5" rx="3.687" ry="2.835" transform="matrix(.19572 .98066 .96381 .26658 0 0)"></ellipse><ellipse cx="290.282" cy="-1113.221" fill="#4286c5" rx="3.51" ry="2.717" transform="matrix(.19572 .98066 .96381 .26658 0 0)"></ellipse><path d="M-1033.087-41.48c4.26 21.344 17.38 30.943 23.61 33.65M-1039.896-25.075c12.675 15.122 22.864 16.4 30.106 8.948" fill="none" fill-rule="evenodd" stroke="#4286c5" stroke-width="1.938"></path></g></g></svg></g></g></g><g pointer-events="auto"></g><g pointer-events="auto"><g opacity="1"><g id="29e764c6-4ab4-4072-b97a-0c0df398ee36" transform="translate(0 0)"><svg x="-288" y="204" overflow="visible"><g transform="scale(1.7469281074217107) matrix(0.707 0.409 -0.707 0.409 0 0)"><circle cx="0" cy="0" fill="transparent" r="23"></circle><svg width="27" height="32" x="-13.5" y="-16" style="fill: rgb(255, 255, 255);"><svg xmlns="http://www.w3.org/2000/svg" width="27" height="32" viewBox="0 0 27 32"><path d="M13.714 14.036H26.66c.125.696.214 1.375.214 2.286 0 7.821-5.25 13.393-13.161 13.393-7.589 0-13.714-6.125-13.714-13.714S6.124 2.287 13.713 2.287c3.696 0 6.804 1.357 9.196 3.589l-3.732 3.589c-1.018-.982-2.804-2.125-5.464-2.125-4.679 0-8.5 3.875-8.5 8.661s3.821 8.661 8.5 8.661c5.429 0 7.464-3.893 7.786-5.911h-7.786v-4.714z"></path></svg></svg></g></svg></g></g><g opacity="1"><g id="a81d9d01-ebf9-4baa-8ca7-65c16404b19a" transform="translate(0 0)"><svg x="-160" y="278" overflow="visible"><g transform="scale(1.7469281074217107) matrix(0.707 0.409 -0.707 0.409 0 0)"><circle cx="0" cy="0" fill="transparent" r="23"></circle><svg width="27" height="32" x="-13.5" y="-16" style="fill: rgb(255, 255, 255);"><svg xmlns="http://www.w3.org/2000/svg" width="27" height="32" viewBox="0 0 27 32"><path d="M9.196 16.268v2.286h-4.5v-2.286h4.5zm0-4.554v2.268h-4.5v-2.268h4.5zm13.536 9.125v2.286h-6.089v-2.286h6.089zm0-4.571v2.286h-12v-2.286h12zm0-4.554v2.268h-12v-2.268h12zm2.411 15.357V4.928a.359.359 0 0 0-.357-.357h-.571l-6.75 4.571-3.75-3.054-3.75 3.054-6.75-4.571h-.571a.359.359 0 0 0-.357.357v22.143c0 .196.161.357.357.357h22.143a.359.359 0 0 0 .357-.357zM9.875 7.25l3.304-2.679h-7.25zm7.679 0L21.5 4.571h-7.25zm9.875-2.321v22.143a2.637 2.637 0 0 1-2.643 2.643H2.643A2.637 2.637 0 0 1 0 27.072V4.929a2.637 2.637 0 0 1 2.643-2.643h22.143a2.637 2.637 0 0 1 2.643 2.643z"></path></svg></svg></g></svg></g></g><g opacity="1"><g id="98795662-64df-4dfd-8127-45f2cc1915a7" transform="translate(0 0)"><svg x="-32" y="352" overflow="visible"><g transform="scale(1.7469281074217107) matrix(0.707 0.409 -0.707 0.409 0 0)"><circle cx="0" cy="0" fill="transparent" r="23"></circle><svg width="18" height="32" x="-9" y="-16" style="fill: rgb(255, 255, 255);"><svg xmlns="http://www.w3.org/2000/svg" width="18" height="32" viewBox="0 0 18 32"><path d="M13.143 10.286c0 .304-.268.571-.571.571s-.571-.268-.571-.571c0-1.232-1.911-1.714-2.857-1.714-.304 0-.571-.268-.571-.571s.268-.571.571-.571c1.661 0 4 .875 4 2.857zm2.857 0c0-3.571-3.625-5.714-6.857-5.714s-6.857 2.143-6.857 5.714c0 1.143.464 2.339 1.214 3.214.339.393.732.768 1.089 1.179C5.857 16.197 6.928 17.983 7.107 20h4.071c.179-2.018 1.25-3.804 2.518-5.321.357-.411.75-.786 1.089-1.179.75-.875 1.214-2.071 1.214-3.214zm2.286 0c0 1.839-.607 3.429-1.839 4.786s-2.857 3.268-3 5.179c.518.304.839.875.839 1.464 0 .429-.161.839-.446 1.143.286.304.446.714.446 1.143 0 .589-.304 1.125-.804 1.446.143.25.232.554.232.839 0 1.161-.911 1.714-1.946 1.714-.464 1.036-1.5 1.714-2.625 1.714S6.982 29.035 6.518 28c-1.036 0-1.946-.554-1.946-1.714 0-.286.089-.589.232-.839A1.715 1.715 0 0 1 4 24.001c0-.429.161-.839.446-1.143A1.667 1.667 0 0 1 4 21.715c0-.589.321-1.161.839-1.464-.143-1.911-1.768-3.821-3-5.179S0 12.126 0 10.286c0-4.857 4.625-8 9.143-8s9.143 3.143 9.143 8z"></path></svg></svg></g></svg></g></g><g opacity="1"><g id="36dcb58d-148f-4bde-bb36-258ebe2a6fc0" transform="translate(0 0)"><svg x="96" y="426" overflow="visible"><g transform="scale(1.7469281074217107) matrix(0.707 0.409 -0.707 0.409 0 0)"><circle cx="0" cy="0" fill="transparent" r="23"></circle><svg width="30" height="32" x="-15" y="-16" style="fill: rgb(255, 255, 255);"><svg xmlns="http://www.w3.org/2000/svg" width="30" height="32" viewBox="0 0 30 32"><path d="M27.125 13.857c1.464 0 2.589 1.071 2.589 2.536 0 1.143-.589 1.946-1.661 2.321l-3.071 1.054 1 2.982c.089.268.125.554.125.839 0 1.411-1.143 2.589-2.554 2.589a2.595 2.595 0 0 1-2.482-1.768l-.982-2.946-5.536 1.893.982 2.929c.089.268.143.554.143.839 0 1.393-1.143 2.589-2.571 2.589a2.572 2.572 0 0 1-2.464-1.768l-.982-2.911-2.732.946a3.04 3.04 0 0 1-.893.161c-1.446 0-2.536-1.071-2.536-2.518 0-1.107.714-2.107 1.768-2.464l2.786-.946-1.875-5.589-2.786.964a2.882 2.882 0 0 1-.857.143C1.107 15.732 0 14.643 0 13.214c0-1.107.714-2.107 1.768-2.464l2.804-.946-.946-2.839a2.682 2.682 0 0 1-.143-.839c0-1.411 1.143-2.589 2.571-2.589 1.125 0 2.107.696 2.464 1.768l.964 2.857 5.536-1.875-.964-2.857a2.682 2.682 0 0 1-.143-.839c0-1.411 1.161-2.589 2.571-2.589 1.125 0 2.125.714 2.482 1.768l.946 2.875 2.893-.982c.25-.071.5-.107.768-.107 1.393 0 2.589 1.036 2.589 2.464 0 1.107-.857 2.036-1.857 2.375l-2.804.964 1.875 5.643 2.929-1c.268-.089.554-.143.821-.143zm-14.179 4.679l5.536-1.875-1.875-5.625-5.536 1.911z"></path></svg></svg></g></svg></g></g></g><g pointer-events="auto"><g opacity="1"><g id="1a3a3272-6dca-4b5a-8104-44369201ed7f" transform="translate(0 0)"><svg x="-768" y="629" overflow="visible"><text stroke="#ffffff" stroke-width="4" font-family="Open Sans" y="36.5" font-size="25pt" fill="#000000" font-weight="bold" transform="matrix(0.707 0.409 -0.707 0.409 0 0)" xml:space="preserve"><tspan x="8" dy="0">TRM Project</tspan></text><text font-family="Open Sans" y="36.5" font-size="25pt" fill="#000000" font-weight="bold" transform="matrix(0.707 0.409 -0.707 0.409 0 0)" xml:space="preserve"><tspan x="8" dy="0">TRM Project</tspan></text></svg></g></g><g opacity="1"><g id="858c9626-57f7-40e7-ab5c-0390183e3bbf"><svg x="-608" y="500" overflow="visible"><text stroke="#ffffff" stroke-width="4" font-family="Open Sans" y="36.5" font-size="25pt" fill="#000000" font-weight="bold" transform="matrix(0.707 0.409 -0.707 0.409 0 0)" xml:space="preserve"><tspan x="8" dy="0">Hasura GraphQL API</tspan></text><text font-family="Open Sans" y="36.5" font-size="25pt" fill="#000000" font-weight="bold" transform="matrix(0.707 0.409 -0.707 0.409 0 0)" xml:space="preserve"><tspan x="8" dy="0">Hasura GraphQL API</tspan></text></svg></g></g><g opacity="1"><g id="b5191a3e-f0c9-4646-a213-b87a0f640170"><svg x="-416" y="407" overflow="visible"><text stroke="#ffffff" stroke-width="4" font-family="Open Sans" y="36.5" font-size="25pt" fill="#000000" font-weight="bold" transform="matrix(0.707 0.409 -0.707 0.409 0 0)" xml:space="preserve"><tspan x="8" dy="0">PostgreSQL</tspan><tspan x="8" dy="1.1em">Database</tspan></text><text font-family="Open Sans" y="36.5" font-size="25pt" fill="#000000" font-weight="bold" transform="matrix(0.707 0.409 -0.707 0.409 0 0)" xml:space="preserve"><tspan x="8" dy="0">PostgreSQL</tspan><tspan x="8" dy="1.1em">Database</tspan></text></svg></g></g><g opacity="1"><g id="6461c00e-369d-4eb3-88d9-36f937d86277"><svg x="-304" y="546" overflow="visible"><text stroke="#ffffff" stroke-width="4" font-family="Open Sans" y="36.5" font-size="25pt" fill="#000000" font-weight="bold" transform="matrix(0.707 0.409 -0.707 0.409 0 0)" xml:space="preserve"><tspan x="8" dy="0">Functions</tspan></text><text font-family="Open Sans" y="36.5" font-size="25pt" fill="#000000" font-weight="bold" transform="matrix(0.707 0.409 -0.707 0.409 0 0)" xml:space="preserve"><tspan x="8" dy="0">Functions</tspan></text></svg></g></g><g opacity="1"><g id="c6e619ea-0dc5-4cb5-9b4d-01e15915f99d"><svg x="-576" y="666" overflow="visible"><text stroke="#ffffff" stroke-width="4" font-family="Open Sans" y="36.5" font-size="25pt" fill="#000000" font-weight="bold" transform="matrix(0.707 0.409 -0.707 0.409 0 0)" xml:space="preserve"><tspan x="8" dy="0">TRM Dashboard</tspan></text><text font-family="Open Sans" y="36.5" font-size="25pt" fill="#000000" font-weight="bold" transform="matrix(0.707 0.409 -0.707 0.409 0 0)" xml:space="preserve"><tspan x="8" dy="0">TRM Dashboard</tspan></text></svg></g></g><g opacity="1"><g id="6b0d6343-4b45-48a2-a09f-ee3df02ad542"><svg x="-320" y="296" overflow="visible"><text stroke="#ffffff" stroke-width="4" font-family="Open Sans" y="30.799999999999997" font-size="20pt" fill="#000000" font-weight="bold" transform="matrix(0.707 -0.409 0.707 0.409 0 0)" xml:space="preserve"><tspan x="8" dy="0">GSuite Auth</tspan></text><text font-family="Open Sans" y="30.799999999999997" font-size="20pt" fill="#000000" font-weight="bold" transform="matrix(0.707 -0.409 0.707 0.409 0 0)" xml:space="preserve"><tspan x="8" dy="0">GSuite Auth</tspan></text></svg></g></g><g opacity="1"><g id="71468885-1c8a-4ae2-a19c-04baccc1f029"><svg x="-208" y="379" overflow="visible"><text stroke="#ffffff" stroke-width="4" font-family="Open Sans" y="30.799999999999997" font-size="20pt" fill="#000000" font-weight="bold" transform="matrix(0.707 -0.409 0.707 0.409 0 0)" xml:space="preserve"><tspan x="8" dy="0">TypeForm Import</tspan></text><text font-family="Open Sans" y="30.799999999999997" font-size="20pt" fill="#000000" font-weight="bold" transform="matrix(0.707 -0.409 0.707 0.409 0 0)" xml:space="preserve"><tspan x="8" dy="0">TypeForm Import</tspan></text></svg></g></g><g opacity="1"><g id="208483fc-e7cc-4261-8fdd-8046fcf054dd"><svg x="-80" y="453" overflow="visible"><text stroke="#ffffff" stroke-width="4" font-family="Open Sans" y="30.799999999999997" font-size="20pt" fill="#000000" font-weight="bold" transform="matrix(0.707 -0.409 0.707 0.409 0 0)" xml:space="preserve"><tspan x="8" dy="0">edyoucated Import</tspan></text><text font-family="Open Sans" y="30.799999999999997" font-size="20pt" fill="#000000" font-weight="bold" transform="matrix(0.707 -0.409 0.707 0.409 0 0)" xml:space="preserve"><tspan x="8" dy="0">edyoucated Import</tspan></text></svg></g></g><g opacity="1"><g id="64488241-9f23-429d-af72-a7e032dc8877"><svg x="64" y="518" overflow="visible"><text stroke="#ffffff" stroke-width="4" font-family="Open Sans" y="30.799999999999997" font-size="20pt" fill="#000000" font-weight="bold" transform="matrix(0.707 -0.409 0.707 0.409 0 0)" xml:space="preserve"><tspan x="8" dy="0">Slack Import</tspan></text><text font-family="Open Sans" y="30.799999999999997" font-size="20pt" fill="#000000" font-weight="bold" transform="matrix(0.707 -0.409 0.707 0.409 0 0)" xml:space="preserve"><tspan x="8" dy="0">Slack Import</tspan></text></svg></g></g></g><g></g></g></svg>