<svg xmlns="http://www.w3.org/2000/svg" viewBox="0 0 512 512"><defs><style>.cls-1{fill:none;}.cls-2{fill:#fff;}</style></defs><title>icon_symOnly_p</title><g id="Layer_2" data-name="Layer 2"><g id="Ebene_1" data-name="Ebene 1"><g id="icon_symOnly_p"><rect id="bg" class="cls-1" width="512" height="512"/><path id="arrow" class="cls-2" d="M84.29,377.72V329a19.31,19.31,0,0,1,2.76-10.12c1.84-3.06,4.83-5.67,9-7.89l99.56-51.81a131.56,131.56,0,0,1,28.21-10c-5.29-1.3-10.27-2.76-15-4.29a86,86,0,0,1-13.33-5.67L96.1,187.71c-4.22-2.22-7.21-4.83-9-7.89a19.31,19.31,0,0,1-2.76-10.12V121L301.44,235.39v27.67Z"/><path id="point" class="cls-2" d="M333.25,362.93a43.31,43.31,0,0,1,3.14-16.33,39.64,39.64,0,0,1,8.74-13.26,43.57,43.57,0,0,1,13.33-8.89,40.91,40.91,0,0,1,16.48-3.3,40.24,40.24,0,0,1,16.18,3.3,42.19,42.19,0,0,1,21.92,55,44.12,44.12,0,0,1-8.74,13.18,40.53,40.53,0,0,1-13.18,8.74,41.57,41.57,0,0,1-16.18,3.22,42.55,42.55,0,0,1-16.48-3.22,42,42,0,0,1-13.33-8.74,38.13,38.13,0,0,1-8.74-13.18A43.22,43.22,0,0,1,333.25,362.93Z"/></g></g></g></svg>