<svg width="29" height="29" viewBox="0 0 29 29" fill="none" xmlns="http://www.w3.org/2000/svg">
<path d="M18 14.5C18 18.4724 17.5553 22.0505 16.8464 24.6201C16.491 25.9084 16.0769 26.9148 15.6382 27.5874C15.1857 28.2811 14.7902 28.5 14.5 28.5C14.2098 28.5 13.8143 28.2811 13.3618 27.5874C12.9231 26.9148 12.509 25.9084 12.1536 24.6201C11.4447 22.0505 11 18.4724 11 14.5C11 10.5276 11.4447 6.94945 12.1536 4.37992C12.509 3.09161 12.9231 2.08524 13.3618 1.41263C13.8143 0.718903 14.2098 0.5 14.5 0.5C14.7902 0.5 15.1857 0.718903 15.6382 1.41263C16.0769 2.08524 16.491 3.09161 16.8464 4.37992C17.5553 6.94945 18 10.5276 18 14.5Z" stroke="#737373"/>
<path d="M16.9743 12.0249C19.7832 14.8338 21.9989 17.6785 23.3146 19.9966C23.9743 21.1589 24.393 22.1634 24.5584 22.9492C24.729 23.7596 24.6042 24.1941 24.3989 24.3993C24.1937 24.6045 23.7593 24.7294 22.9488 24.5588C22.163 24.3934 21.1585 23.9746 19.9962 23.315C17.6781 21.9993 14.8335 19.7836 12.0246 16.9747C9.21568 14.1658 7 11.3212 5.68429 9.00301C5.02462 7.84074 4.60587 6.83627 4.44046 6.05046C4.26985 5.23999 4.39473 4.80554 4.59995 4.60032C4.80517 4.3951 5.23962 4.27023 6.05009 4.44083C6.8359 4.60624 7.84037 5.02499 9.00264 5.68466C11.3208 7.00037 14.1654 9.21605 16.9743 12.0249Z" stroke="#737373"/>
<path d="M14.5 11C18.4724 11 22.0505 11.4447 24.6201 12.1536C25.9084 12.509 26.9148 12.9231 27.5874 13.3618C28.2811 13.8143 28.5 14.2098 28.5 14.5C28.5 14.7902 28.2811 15.1857 27.5874 15.6382C26.9148 16.0769 25.9084 16.491 24.6201 16.8464C22.0505 17.5553 18.4724 18 14.5 18C10.5276 18 6.94945 17.5553 4.37992 16.8464C3.09161 16.491 2.08524 16.0769 1.41263 15.6382C0.718903 15.1857 0.5 14.7902 0.5 14.5C0.5 14.2098 0.718903 13.8143 1.41263 13.3618C2.08524 12.9231 3.09161 12.509 4.37992 12.1536C6.94945 11.4447 10.5276 11 14.5 11Z" stroke="#737373"/>
<path d="M16.976 16.9748C14.1671 19.7837 11.3225 21.9994 9.00436 23.3151C7.84208 23.9748 6.83762 24.3935 6.05181 24.5589C5.24134 24.7295 4.80689 24.6046 4.60167 24.3994C4.39644 24.1942 4.27157 23.7598 4.44217 22.9493C4.60759 22.1635 5.02633 21.159 5.686 19.9967C7.00172 17.6786 9.21739 14.834 12.0263 12.0251C14.8352 9.21616 17.6798 7.00049 19.998 5.68478C21.1602 5.02511 22.1647 4.60636 22.9505 4.44095C23.761 4.27034 24.1954 4.39522 24.4007 4.60044C24.6059 4.80566 24.7308 5.24011 24.5601 6.05058C24.3947 6.83639 23.976 7.84086 23.3163 9.00313C22.0006 11.3213 19.7849 14.1659 16.976 16.9748Z" stroke="#737373"/>
<rect x="16.5" y="11" width="1" height="1" fill="#737373"/>
<rect x="16.5" y="11" width="1" height="1" fill="#737373"/>
<rect x="11.5" y="11" width="1" height="1" fill="#737373"/>
<rect x="11.5" y="11" width="1" height="1" fill="#737373"/>
<rect x="9.5" y="14" width="1" height="1" fill="#737373"/>
<rect x="9.5" y="14" width="1" height="1" fill="#737373"/>
<rect x="16.5" y="17" width="1" height="1" fill="#737373"/>
<rect x="16.5" y="17" width="1" height="1" fill="#737373"/>
<rect x="18.5" y="14" width="1" height="1" fill="#737373"/>
<rect x="18.5" y="14" width="1" height="1" fill="#737373"/>
<rect x="13.5" y="10" width="2" height="1" fill="#737373"/>
<rect x="13.5" y="10" width="2" height="1" fill="#737373"/>
<rect x="11.5" y="17" width="1" height="1" fill="#737373"/>
<rect x="11.5" y="17" width="1" height="1" fill="#737373"/>
<rect x="13.5" y="18" width="2" height="1" fill="#737373"/>
<rect x="13.5" y="18" width="2" height="1" fill="#737373"/>
</svg>
