<svg width="30" height="28" viewBox="0 0 30 28" fill="none" xmlns="http://www.w3.org/2000/svg">
<rect x="0.75" y="0.75" width="27.9" height="26.5" rx="3.25" stroke="#737373" stroke-width="1.5"/>
<circle cx="17.65" cy="3.65" r="0.85" fill="#737373"/>
<circle cx="21.15" cy="3.65" r="0.85" fill="#737373"/>
<circle cx="24.65" cy="3.65" r="0.85" fill="#737373"/>
<rect x="1.4" y="5.6" width="26.6" height="1.4" fill="#737373"/>
<rect x="12.6" y="11.4816" width="0.936459" height="9.43202" rx="0.468229" transform="rotate(-17.5 12.6 11.4816)" fill="#737373"/>
<rect x="8.41312" y="12.5999" width="0.97113" height="4.96672" rx="0.485565" transform="rotate(45 8.41312 12.5999)" fill="#737373"/>
<rect x="4.90438" y="16.1251" width="0.97113" height="4.9616" rx="0.485565" transform="rotate(-45 4.90438 16.1251)" fill="#737373"/>
<rect width="0.971182" height="4.96698" rx="0.485591" transform="matrix(-0.707107 0.707107 0.707107 0.707107 20.9902 12.5999)" fill="#737373"/>
<rect width="0.971182" height="4.96186" rx="0.485591" transform="matrix(-0.707107 -0.707107 -0.707107 0.707107 24.4945 16.1251)" fill="#737373"/>
</svg>
