<svg xmlns="http://www.w3.org/2000/svg" viewBox="0 0 806.06 102.79"><defs><style>.cls-1{fill:#fb1d5c;}.cls-2{fill:#454545;}</style></defs><title>tl-logo</title><g id="Layer_2" data-name="Layer 2"><g id="Layer_1-2" data-name="Layer 1"><path id="arrow" class="cls-1" d="M0,92.81V78A5.82,5.82,0,0,1,.84,75a6.61,6.61,0,0,1,2.74-2.39L33.73,56.9a40,40,0,0,1,8.54-3c-1.6-.4-3.11-.84-4.52-1.3a26.51,26.51,0,0,1-4-1.72L3.58,35.26A6.61,6.61,0,0,1,.84,32.87,5.83,5.83,0,0,1,0,29.8V15L65.77,49.7v8.38Z"/><path id="point" class="cls-1" d="M75.4,88.33a13.29,13.29,0,0,1,.95-5,12.09,12.09,0,0,1,2.65-4,13.24,13.24,0,0,1,4-2.7,12.38,12.38,0,0,1,5-1,12.23,12.23,0,0,1,4.9,1,12.44,12.44,0,0,1,4,2.7,12.25,12.25,0,0,1,2.65,4,12.48,12.48,0,0,1,1,5,12.32,12.32,0,0,1-1,5,13.24,13.24,0,0,1-2.65,4,12.16,12.16,0,0,1-4,2.65,12.56,12.56,0,0,1-4.9,1,12.83,12.83,0,0,1-5-1,12.6,12.6,0,0,1-4-2.65,11.47,11.47,0,0,1-2.65-4A13.2,13.2,0,0,1,75.4,88.33Z"/><path class="cls-1" d="M178,17.2H145.45V0h84.44V17.2H197.35v83.15H178Z"/><path class="cls-1" d="M240.74,71.25c1.18,8.74,8.95,15,21.55,15,6.6,0,15.25-2.44,19.36-6.59l11.43,11C285.46,98.49,273,102.21,262,102.21c-24.92,0-39.73-15-39.73-37.7,0-21.5,14.95-37,38.41-37,24.19,0,39.29,14.63,36.51,43.73ZM280,56.77C278.86,47.59,271.53,43,261.27,43c-9.68,0-17.6,4.58-20.23,13.76Z"/><path class="cls-1" d="M373.72,91.32c-8.36,8-17.16,11.18-27.86,11.18-21,0-38.41-12.33-38.41-37.42s17.45-37.41,38.41-37.41c10.26,0,18.18,2.87,26.1,10.46L360.67,49.74a22.27,22.27,0,0,0-14.52-5.59c-12,0-20.81,8.61-20.81,20.93,0,13.48,9.38,20.65,20.52,20.65,5.72,0,11.44-1.58,15.83-5.88Z"/><path class="cls-1" d="M403.77,0V39.28c6.45-8.17,14.37-10.61,22.58-10.61,20.52,0,29.61,13.62,29.61,34.41v37.27H438.08V63.22c0-12.9-6.89-18.35-16.42-18.35-10.56,0-17.89,8.75-17.89,19.35v36.13H385.89V0Z"/><path class="cls-2" d="M495.26,0V82.86H548v17.49H475.9V0Z"/><path class="cls-2" d="M617.23,29.67h17.16v70.68H617.53L616.65,90c-4.11,8.31-15.4,12.33-23.46,12.47C571.78,102.64,556,89.74,556,64.94c0-24.37,16.57-37.13,37.68-37,9.68,0,18.91,4.45,23,11.47ZM573.84,64.94c0,13.48,9.53,21.5,21.4,21.5,28.15,0,28.15-42.86,0-42.86C583.37,43.58,573.84,51.47,573.84,64.94Z"/><path class="cls-2" d="M671.62.14V39.28C675.88,32,687.75,28,695.37,28c21.12,0,36.8,12.62,36.8,37,0,23.22-16,37-37.24,37-8.79,0-17.74-2.87-23.31-11.33l-1.17,9.75H653.74V.14Zm1.18,64.8c0,12.76,9.67,20.79,21,20.79,11.44,0,20.53-8.46,20.53-20.79,0-12.76-9.09-20.64-20.53-20.64C682.47,44.3,672.8,52.61,672.8,64.94Z"/><path class="cls-2" d="M792.72,48.45c-5.13-4.73-11-6.3-17.89-6.3-8.5,0-13.19,2.58-13.19,7s4.25,7.17,13.49,7.74c13.63.86,30.93,3.87,30.93,22.65,0,12.48-10.41,23.23-31.08,23.23-11.43,0-22.87-1.87-33.43-12.62l8.8-12.47c6.89,7,16.86,9.75,24.92,9.89,6.75.14,13.05-2.58,13.05-7.74,0-4.87-4.1-7.6-14.37-8.17-13.63-1-29.9-5.88-29.9-21.94,0-16.34,17.3-22.07,30.49-22.07,11.29,0,19.79,2.15,28.15,9.32Z"/></g></g></svg>